<svg width="478" height="403" viewBox="0 0 478 403" fill="none" xmlns="http://www.w3.org/2000/svg">
<rect x="186" y="186" width="285" height="211" rx="5" stroke="black" stroke-width="12"/>
<path d="M188 233L329 310" stroke="black" stroke-width="12" stroke-linecap="round" stroke-linejoin="round"/>
<path d="M329 310L471 233" stroke="black" stroke-width="12" stroke-linecap="round" stroke-linejoin="round"/>
<path d="M351 170C352.652 168.778 366.492 170.934 365.96 168.95L350.693 111.972C350.161 109.986 348.467 108.528 346.423 108.298L325.968 105.994L334.191 87.1018C335.011 85.2177 334.595 83.0238 333.142 81.5709L291.432 39.8605C289.977 38.4063 287.781 37.9909 285.896 38.8134L267.03 47.0459L264.705 26.5731C264.473 24.5314 263.016 22.8395 261.031 22.3077L204.054 7.04065C202.067 6.50838 199.957 7.24669 198.736 8.90144L186.514 25.4641L174.264 8.89669C173.042 7.24451 170.934 6.50793 168.95 7.03975L111.972 22.3068C109.986 22.8391 108.528 24.5333 108.298 26.5769L105.994 47.0316L87.1018 38.8089C85.2177 37.9889 83.0238 38.405 81.5708 39.858L39.8605 81.5684C38.4063 83.0225 37.9908 85.2188 38.8133 87.1037L47.0459 105.97L26.5731 108.295C24.5314 108.527 22.8395 109.984 22.3077 111.969L7.04063 168.946C6.50837 170.933 7.24668 173.042 8.90142 174.264L25.4447 186.471L8.89191 198.735C7.24232 199.958 6.50747 202.064 7.03883 204.047L22.3077 261.031C22.8395 263.016 24.5314 264.473 26.5731 264.705L46.9982 267.025L38.8045 285.9C37.987 287.783 38.4038 289.975 39.8555 291.427L81.5709 333.142C83.0238 334.595 85.2177 335.011 87.1018 334.191L105.95 325.987L108.292 346.431C108.526 348.47 109.982 350.16 111.965 350.691L168.95 365.96C171.5 367 170.5 357 170.5 353" stroke="black" stroke-width="12"/>
<path d="M362.5 169.648H300.651C298.182 169.648 296.095 167.843 295.627 165.419C292.004 146.664 283.602 129.133 271.203 114.538C257.876 98.8519 240.456 87.1745 220.882 80.8072C201.309 74.44 180.352 73.633 160.347 78.4762C140.342 83.3195 122.075 93.6227 107.582 108.238C93.0882 122.853 82.9378 141.205 78.2617 161.25C73.5856 181.294 74.5675 202.244 81.0979 221.763C87.6284 241.283 99.4508 258.605 115.248 271.801C129.936 284.07 147.524 292.323 166.295 295.793C168.738 296.244 170.566 298.34 170.566 300.824V363" stroke="black" stroke-width="12"/>
</svg>
